<svg width="183" height="112" viewBox="0 0 183 112" fill="none" xmlns="http://www.w3.org/2000/svg">
<g id="Frame" clip-path="url(#clip0_183_3414)">
<path id="Vector" d="M-0.109375 1.75398V8.22255C0.622054 7.30827 1.26205 6.66827 1.26205 5.06827C1.26205 2.50827 0.622054 1.4797 -0.109375 1.75398Z" fill="#CA974D"/>
<path id="Vector_2" d="M0.637679 31.86C0.637679 30.6029 3.28911 28.0429 3.28911 25.5743C3.28911 24.2486 2.60339 21.1172 1.23196 21.1172C0.683393 21.1172 0.22625 21.8029 -0.09375 22.7172V30.1686C0.134821 30.8543 0.409107 31.54 0.729107 32.1572C0.660536 32.0658 0.637679 31.9743 0.637679 31.86Z" fill="#CA974D"/>
<path id="Vector_3" d="M64.7525 81.4844C64.1811 81.4844 63.9297 84.1587 63.9297 84.8901C63.9297 88.2272 66.604 95.3129 67.4954 95.3129C67.6554 93.6215 67.9754 91.9072 67.9754 90.1244C67.9754 87.4044 67.4725 81.4844 64.7525 81.4844Z" fill="#CA974D"/>
<path id="Vector_4" d="M44.0899 3.86192C45.7356 3.86192 46.3528 -3.52094 46.3528 -5.21237C46.3528 -6.44665 46.2385 -7.68094 45.9642 -8.96094C45.7585 -8.57237 45.3699 -8.18379 45.3699 -7.58951C45.3699 -7.38379 44.9813 -7.3838 44.9813 -7.3838C43.1985 -4.61808 43.0156 -1.46379 43.0156 1.69049C43.0156 2.42192 43.3356 3.86192 44.0899 3.86192Z" fill="#CA974D"/>
<path id="Vector_5" d="M44.5438 57.5771C42.761 60.3429 42.5781 63.4972 42.5781 66.6514C42.5781 67.3829 42.8981 68.8229 43.6524 68.8229C45.2981 68.8229 45.9153 61.44 45.9153 59.7486C45.9153 58.5143 45.801 57.28 45.5267 56C45.321 56.3886 44.9324 56.7771 44.9324 57.3714C44.9324 57.5771 44.5438 57.5771 44.5438 57.5771Z" fill="#CA974D"/>
<path id="Vector_6" d="M87.4508 87.4261C87.4508 87.6318 86.6736 87.6318 86.6736 87.6318C83.1308 90.3976 82.7422 93.5518 82.7422 96.7061C82.7422 97.4376 83.3593 98.8776 84.8679 98.8776C88.1822 98.8776 89.3936 91.4947 89.3936 89.8033C89.3936 88.569 89.165 87.3347 88.6393 86.0547C88.2508 86.4433 87.4508 86.8547 87.4508 87.4261Z" fill="#CA974D"/>
<path id="Vector_7" d="M104.362 80.4297C104.362 80.6125 104.156 80.7954 104.156 80.9783C104.156 83.1268 107.402 91.6525 109.231 91.6525C109.436 91.6525 109.505 90.0297 109.505 89.824C109.505 87.8354 108.819 85.8925 107.722 84.3611C106.739 83.0125 104.933 82.2125 104.362 80.4297Z" fill="#CA974D"/>
<path id="Vector_8" d="M19.7449 76.9808C19.7449 77.1865 19.3563 77.1865 19.3563 77.1865C17.5735 79.9522 17.3906 83.1065 17.3906 86.2608C17.3906 86.9922 17.7106 88.4322 18.4649 88.4322C20.1106 88.4322 20.7278 81.0494 20.7278 79.358C20.7278 78.1237 20.6135 76.8894 20.3392 75.6094C20.1335 75.9979 19.7449 76.3865 19.7449 76.9808Z" fill="#CA974D"/>
<path id="Vector_9" d="M16.7578 48.75C16.8035 49.1843 16.7121 49.7329 17.0321 50.2357C17.1464 50.3957 16.8035 50.6243 16.8035 50.6243C16.8721 53.8929 18.4492 56.6357 20.2092 59.2414C20.6207 59.8357 21.6721 60.8643 22.3121 60.4529C23.6835 59.5386 20.0721 53.07 19.135 51.6529C18.4721 50.6243 17.6721 49.6643 16.7578 48.75Z" fill="#CA974D"/>
<path id="Vector_10" d="M71.0417 63.6797C71.0417 63.8625 70.8359 64.0454 70.8359 64.2283C70.8359 66.3768 74.0817 74.9025 75.9102 74.9025C76.1159 74.9025 76.1845 73.2797 76.1845 73.074C76.1845 71.0854 75.4988 69.1425 74.4017 67.6111C73.4188 66.2625 71.6359 65.4625 71.0417 63.6797Z" fill="#CA974D"/>
<path id="Vector_11" d="M48.5965 12.4105C48.5965 12.6162 48.2079 12.6162 48.2079 12.6162C46.425 15.3819 46.2422 18.5362 46.2422 21.6905C46.2422 22.4219 46.5622 23.8619 47.3165 23.8619C48.9622 23.8619 49.5793 16.4791 49.5793 14.7876C49.5793 13.5533 49.465 12.3191 49.1908 11.0391C48.985 11.4276 48.5965 11.8162 48.5965 12.4105Z" fill="#CA974D"/>
<path id="Vector_12" d="M25.7838 11.9539C25.6923 12.1139 25.3495 11.9082 25.3495 11.9082C22.4009 13.3482 20.5952 15.9539 18.9723 18.6511C18.5838 19.2682 18.1038 20.6625 18.7666 21.0511C20.1838 21.9196 24.5266 15.9082 25.3952 14.4682C26.0352 13.4168 26.5838 12.2968 27.0181 11.0625C26.6295 11.3139 26.0809 11.4511 25.7838 11.9539Z" fill="#CA974D"/>
<path id="Vector_13" d="M95.3367 67.2227C95.4282 67.4055 96.891 66.6741 97.051 66.5827C98.7882 65.6227 100.16 64.0684 100.982 62.377C101.714 60.8684 101.554 58.9027 102.811 57.5312C102.651 57.6227 102.4 57.5313 102.24 57.6227C100.365 58.6513 94.4682 65.6455 95.3367 67.2227Z" fill="#CA974D"/>
<path id="Vector_14" d="M127.267 73.7559C127.267 74.0302 126.764 74.0302 126.764 74.0302C124.501 77.8702 124.25 82.2817 124.25 86.6702C124.25 87.6759 124.639 89.6874 125.621 89.6874C127.724 89.6874 128.501 79.4017 128.501 77.0474C128.501 75.3331 128.364 73.5959 128.021 71.8359C127.77 72.3845 127.267 72.9331 127.267 73.7559Z" fill="#CA974D"/>
<path id="Vector_15" d="M147.884 50.6953C147.884 50.9467 147.633 51.1982 147.633 51.4496C147.633 54.4439 151.77 66.3525 154.101 66.3525C154.353 66.3525 154.444 64.0896 154.444 63.8153C154.444 61.0496 153.553 58.3296 152.181 56.181C150.924 54.2839 148.616 53.1639 147.884 50.6953Z" fill="#CA974D"/>
<path id="Vector_16" d="M127.313 48.3837C127.564 48.3837 127.656 46.1208 127.656 45.8466C127.656 43.0808 126.764 40.3608 125.393 38.2123C124.159 36.3151 121.873 35.1951 121.119 32.7266C121.119 32.978 120.867 33.2294 120.867 33.4808C120.844 36.4751 124.982 48.3837 127.313 48.3837Z" fill="#CA974D"/>
<path id="Vector_17" d="M168.595 71.2169C168.595 71.4912 168.092 71.4912 168.092 71.4912C165.83 75.3312 165.578 79.7426 165.578 84.1312C165.578 85.1369 165.967 87.1483 166.95 87.1483C169.052 87.1483 169.83 76.8626 169.83 74.5083C169.83 72.794 169.692 71.0569 169.35 69.2969C169.098 69.8454 168.595 70.394 168.595 71.2169Z" fill="#CA974D"/>
<path id="Vector_18" d="M157.626 30.1641C157.626 30.4155 157.375 30.6669 157.375 30.9184C157.375 33.9126 161.512 45.8212 163.844 45.8212C164.095 45.8212 164.186 43.5584 164.186 43.2841C164.186 40.5184 163.295 37.7983 161.924 35.6498C160.666 33.7526 158.381 32.6326 157.626 30.1641Z" fill="#CA974D"/>
<path id="Vector_19" d="M79.0402 10.0298C76.9374 12.1555 71.5202 23.5383 73.1659 25.1612C73.3488 25.3441 74.9945 23.7898 75.2002 23.5841C77.1431 21.6183 78.4231 19.0583 78.9488 16.5669C79.4059 14.3498 78.5602 11.9498 79.7717 9.66406C79.5888 9.84692 79.2231 9.84692 79.0402 10.0298Z" fill="#CA974D"/>
<path id="Vector_20" d="M67.1071 1.82625C69.0499 -0.139467 70.3299 -2.69946 70.8556 -5.19089C71.3128 -7.40803 70.4671 -9.80804 71.6785 -12.0938C71.4956 -11.9109 71.1299 -11.9109 70.9699 -11.728C68.8671 -9.60232 63.4499 1.78054 65.0956 3.4034C65.2556 3.58625 66.9014 2.03196 67.1071 1.82625Z" fill="#CA974D"/>
<path id="Vector_21" d="M32.6421 32.1562C32.6421 32.4077 32.3906 32.6591 32.3906 32.9105C32.3906 35.9048 36.5278 47.8134 38.8592 47.8134C39.1106 47.8134 39.2021 45.5505 39.2021 45.2762C39.2021 42.5105 38.3106 39.7905 36.9392 37.642C35.6821 35.7677 33.3963 34.6477 32.6421 32.1562Z" fill="#CA974D"/>
<path id="Vector_22" d="M41.1161 99.0163C41.2761 99.222 43.0819 97.8506 43.2876 97.6677C45.4133 95.9077 46.9676 93.5077 47.7447 91.062C48.4304 88.9134 47.859 86.422 49.2761 84.2734C49.0704 84.4334 48.7276 84.4106 48.5219 84.5706C46.2361 86.4677 39.6533 97.2106 41.1161 99.0163Z" fill="#CA974D"/>
<path id="Vector_23" d="M97.6889 33.2739C97.6889 31.5596 97.5518 29.8225 97.2089 28.0625C96.9575 28.6111 96.4546 29.1596 96.4546 29.9825C96.4546 30.2568 95.9518 30.2568 95.9518 30.2568C93.6889 34.0968 93.4375 38.5082 93.4375 42.8968C93.4375 43.9025 93.8261 45.9139 94.8089 45.9139C96.9118 45.9368 97.6889 35.6282 97.6889 33.2739Z" fill="#CA974D"/>
<path id="Vector_24" d="M109.671 7.63281C109.625 7.88424 109.328 8.08995 109.282 8.34138C108.734 11.2671 110.654 23.7471 112.916 24.1585C113.168 24.2042 113.671 22.01 113.716 21.7357C114.219 19.0157 113.854 16.1814 112.871 13.8271C112.002 11.7014 109.968 10.1928 109.671 7.63281Z" fill="#CA974D"/>
<path id="Vector_25" d="M141.58 74.1641C141.58 74.4155 141.328 74.6669 141.328 74.9183C141.328 77.9126 145.465 89.8212 147.797 89.8212C148.048 89.8212 148.14 87.5584 148.14 87.2841C148.14 84.5184 147.248 81.7983 145.877 79.6498C144.62 77.7526 142.334 76.6326 141.58 74.1641Z" fill="#CA974D"/>
<path id="Vector_26" d="M154.197 -7.47656C154.197 -7.22513 153.945 -6.97371 153.945 -6.72228C153.945 -3.72799 158.082 8.18058 160.414 8.18058C160.665 8.18058 160.757 5.91772 160.757 5.64344C160.757 2.87772 159.865 0.157723 158.494 -1.99085C157.237 -3.88799 154.951 -5.00799 154.197 -7.47656Z" fill="#CA974D"/>
<path id="Vector_27" d="M145.665 30.1259C145.916 30.1259 146.007 27.863 146.007 27.5887C146.007 24.823 145.116 22.103 143.745 19.9545C142.51 18.0573 140.225 16.9373 139.47 14.4688C139.47 14.7202 139.219 14.9716 139.219 15.223C139.196 18.2173 143.333 30.1259 145.665 30.1259Z" fill="#CA974D"/>
<path id="Vector_28" d="M66.9692 50.2821C67.2206 50.2821 67.312 48.0193 67.312 47.745C67.312 44.9793 66.4206 42.2593 65.0492 40.1107C63.8149 38.2136 61.5292 37.0936 60.7749 34.625C60.7749 34.8764 60.5234 35.1279 60.5234 35.3793C60.5234 38.3736 64.6606 50.2821 66.9692 50.2821Z" fill="#CA974D"/>
<path id="Vector_29" d="M1.62777 57.0486C1.62777 54.3286 0.850625 51.6772 -0.109375 49.1172V62.26C1.35348 61.62 1.62777 58.8543 1.62777 57.0486Z" fill="#CA974D"/>
<path id="Vector_30" d="M3.1592 95.1735C3.89063 92.065 3.29634 88.7964 2.38205 85.7564C1.8792 84.1564 1.37634 82.2135 -0.109375 82.0078V91.585C0.0734821 91.8364 0.233482 92.0878 0.416339 92.3164C1.2392 93.345 2.38205 93.985 3.1592 95.1735Z" fill="#CA974D"/>
<path id="Vector_31" d="M181.417 11.3366C181.371 11.2452 181.326 11.1539 181.303 11.0625C181.28 11.1539 181.257 11.2452 181.234 11.3366H181.417Z" fill="#CA974D"/>
<path id="Vector_32" d="M180.781 8.40924C180.781 9.32353 180.918 10.215 181.307 11.0607C181.696 9.66639 182.244 8.88924 182.77 8.22638V1.75781C181.833 2.10067 180.781 4.50067 180.781 8.40924Z" fill="#CA974D"/>
<path id="Vector_33" d="M182.742 30.1702V22.7188C182.33 23.8388 182.102 25.3245 182.102 26.2845C182.102 27.6102 182.33 28.9359 182.742 30.1702Z" fill="#CA974D"/>
<path id="Vector_34" d="M179.703 56.3839C179.703 58.7382 179.703 62.3953 182.08 62.3953C182.332 62.3953 182.56 62.3496 182.766 62.2582V49.1153C182.515 48.4753 182.263 47.8353 182.012 47.1953C180.183 49.8925 179.703 53.161 179.703 56.3839Z" fill="#CA974D"/>
<path id="Vector_35" d="M181.738 82.1223C179.498 82.808 179.795 84.7965 180.458 86.9223C180.915 88.408 181.738 90.0994 182.766 91.5623V82.008C182.446 81.9851 182.104 82.008 181.738 82.1223Z" fill="#CA974D"/>
<path id="Vector_36" d="M26.2157 107.492C24.41 107.492 24.25 110.189 24.25 111.629C24.25 111.629 24.25 111.629 24.25 111.652C24.25 111.744 24.25 111.835 24.25 111.949H27.9986C28.0214 111.698 28.0214 111.446 28.0214 111.195C28.0443 109.686 27.7014 107.492 26.2157 107.492Z" fill="#CA974D"/>
<path id="Vector_37" d="M45.988 106.898C44.6851 106.898 44.1594 109.756 43.9766 111.927H47.4966C47.5651 111.424 47.6109 110.944 47.6109 110.487C47.6109 109.161 47.3594 106.898 45.988 106.898Z" fill="#CA974D"/>
<path id="Vector_38" d="M92.5703 111.147C92.5703 111.398 92.5932 111.672 92.616 111.924H94.4446C93.4617 110.575 92.5703 109.89 92.5703 111.147Z" fill="#CA974D"/>
<path id="Vector_39" d="M114.104 104.336C113.944 104.999 113.875 105.662 113.875 106.302C113.875 107.582 114.446 110.027 115.246 111.925H118.789C118.675 111.193 118.378 110.462 118.058 109.845C116.984 107.856 115.086 106.302 114.104 104.336Z" fill="#CA974D"/>
<path id="Vector_40" d="M142.195 111.93H143.361C143.178 111.312 143.018 110.718 142.881 110.078C142.744 110.215 142.492 110.924 142.195 111.93Z" fill="#CA974D"/>
<path id="Vector_41" d="M158.878 104.797C158.558 106.008 158.375 107.288 158.375 108.591C158.375 109.825 158.558 110.945 158.809 111.928H162.672C161.964 109.985 160.546 108.157 159.449 106.58C159.472 105.985 158.878 105.391 158.878 104.797Z" fill="#CA974D"/>
</g>
<defs>
<clipPath id="clip0_183_3414">
<rect width="182.857" height="182.857" fill="white" transform="translate(0 -70.9297)"/>
</clipPath>
</defs>
</svg>
