<svg width="78" height="94" viewBox="0 0 78 94" fill="none" xmlns="http://www.w3.org/2000/svg">
<path d="M61.8554 57.5223C81.339 46.612 71.3541 -0.118826 61.7523 0.523122C52.1504 1.16507 47.7815 19.104 50.4652 34.1899C51.8079 42.0219 54.9072 49.4463 59.5298 55.9049C59.9557 61.0009 60.7511 66.0589 61.9098 71.0391C59.579 68.7574 57.1134 66.5881 54.5442 64.5374C55.6645 60.8314 50.496 55.8189 41.718 47.6302C32.2535 38.8089 8.34274 21.4758 1.98286 29.9576C-4.37703 38.4394 13.2137 55.5071 28.1837 60.3195C35.8721 62.8465 43.8186 64.5068 51.8756 65.2696C57.292 69.3945 62.211 74.1357 66.5338 79.3978C61.7501 77.3856 56.773 75.8687 51.6805 74.8708C40.5017 66.5333 12.6084 62.8009 9.04077 71.3186C5.26279 80.3225 25.1677 85.9682 35.3554 83.7341C41.1919 82.3847 46.7977 80.1797 51.9911 77.1904C57.9783 78.4084 63.7878 80.3774 69.2823 83.0507C71.5401 86.2629 73.4611 89.6998 75.0146 93.3068C75.1251 93.5771 75.3383 93.7924 75.6075 93.9053C75.8766 94.0182 76.1795 94.0194 76.4496 93.9086C76.7197 93.7979 76.9348 93.5843 77.0477 93.3149C77.1606 93.0454 77.1619 92.7421 77.0514 92.4718C74.0777 85.7046 69.9625 79.5008 64.886 74.1321C63.4311 68.6863 62.4176 63.1317 61.8554 57.5223Z" fill="#ECC889"/>
</svg>
