<svg width="110" height="111" viewBox="0 0 110 111" fill="none" xmlns="http://www.w3.org/2000/svg">
<path d="M44.688 49.8269C57.2659 53.5224 70.6459 63.8976 77.8214 70.0676C69.6106 54.3001 58.0301 40.1413 42.8137 31.134C22.6298 32.8457 -8.97359 14.4325 3.89455 3.03981C15.2703 -7.0418 37.1927 19.3737 43.9237 28.0525C48.2913 30.4435 52.4262 33.2394 56.2742 36.4036C53.1194 29.6409 50.9629 22.4539 49.8727 15.0688C48.2191 3.27178 58.7012 -2.9013 66.7934 10.2265C73.4493 21.0595 72.4837 44.8425 71.9823 52.9242C76.3486 58.7608 80.1946 64.9711 83.4757 71.4835C81.6464 48.8669 88.4762 25.4867 97.8879 26.803C111.849 28.7657 109.447 53.4819 107.751 69.1292C106.389 81.6529 97.7118 94.4823 94.2966 99.1152C95.1453 102.241 95.8638 105.393 96.4555 108.538C96.8322 110.687 91.9112 110.438 91.5982 108.683C91.4034 107.592 91.1839 106.505 90.9469 105.412C73.838 112.021 35.5865 107.522 29.9286 99.743C24.0425 91.6514 28.8683 87.6944 48.7718 87.5101C65.8136 87.3583 83.8179 98.3778 90.3518 102.78C88.0083 93.4668 84.7565 84.407 80.6435 75.7318C60.9626 81.4498 9.43499 68.9318 8.39249 57.3094C7.25138 45.1629 26.3332 44.4385 44.688 49.8269Z" fill="#BBBEA0"/>
</svg>
