<svg width="11" height="12" viewBox="0 0 11 12" fill="none" xmlns="http://www.w3.org/2000/svg">
<path d="M5.5 10.3394C7.77817 10.3394 9.625 8.49253 9.625 6.21436C9.625 3.93618 7.77817 2.08936 5.5 2.08936C3.22183 2.08936 1.375 3.93618 1.375 6.21436C1.375 8.49253 3.22183 10.3394 5.5 10.3394Z" stroke="#666666" stroke-linecap="round" stroke-linejoin="round"/>
<path d="M6.8748 7.24588C6.65832 7.5344 6.35655 7.7475 6.01224 7.855C5.66792 7.9625 5.29851 7.95895 4.95633 7.84485C4.61414 7.73076 4.31653 7.51189 4.10563 7.21926C3.89474 6.92664 3.78125 6.57507 3.78125 6.21437C3.78125 5.85366 3.89473 5.5021 4.10562 5.20946C4.31651 4.91683 4.61412 4.69797 4.95631 4.58386C5.29849 4.46976 5.6679 4.46621 6.01222 4.5737C6.35653 4.6812 6.6583 4.8943 6.87478 5.18282" stroke="#666666" stroke-linecap="round" stroke-linejoin="round"/>
</svg>
