<svg width="55" height="46" viewBox="0 0 55 46" fill="none" xmlns="http://www.w3.org/2000/svg">
<path d="M25.982 13.2335C25.982 6.24152 20.278 0.353516 13.1019 0.353516C6.10995 0.353516 0.221951 6.24152 0.221951 13.2335C0.221951 20.0415 5.74195 25.7455 12.5499 26.1135L8.13395 45.8015H15.4939L25.062 18.0175C25.614 16.5455 25.982 14.8895 25.982 13.2335ZM54.502 13.2335C54.502 6.24152 48.798 0.353516 41.622 0.353516C34.63 0.353516 28.742 6.24152 28.742 13.2335C28.742 20.0415 34.262 25.7455 41.07 26.1135L36.654 45.8015H44.014L53.582 18.0175C54.134 16.5455 54.502 14.8895 54.502 13.2335Z" fill="#004710" fill-opacity="0.6"/>
</svg>
