<svg width="89" height="85" viewBox="0 0 89 85" fill="none" xmlns="http://www.w3.org/2000/svg">
<path d="M88.6328 42.668L78.8728 31.508L80.2328 16.748L65.7928 13.468L58.2328 0.667969L44.6328 6.50797L31.0328 0.667969L23.4728 13.428L9.03281 16.668L10.3928 31.468L0.632812 42.668L10.3928 53.828L9.03281 68.628L23.4728 71.908L31.0328 84.668L44.6328 78.788L58.2328 84.628L65.7928 71.868L80.2328 68.588L78.8728 53.828L88.6328 42.668ZM34.1528 58.708L24.6328 49.108C24.262 48.7379 23.9678 48.2984 23.7671 47.8145C23.5664 47.3306 23.463 46.8118 23.463 46.288C23.463 45.7641 23.5664 45.2454 23.7671 44.7615C23.9678 44.2776 24.262 43.838 24.6328 43.468L24.9128 43.188C26.4728 41.628 29.0328 41.628 30.5928 43.188L37.0328 49.668L57.6328 29.028C59.1928 27.468 61.7528 27.468 63.3128 29.028L63.5928 29.308C65.1528 30.868 65.1528 33.388 63.5928 34.948L39.9128 58.708C38.2728 60.268 35.7528 60.268 34.1528 58.708Z" fill="#00AB32"/>
</svg>
