<svg width="24" height="25" viewBox="0 0 24 25" fill="none" xmlns="http://www.w3.org/2000/svg">
<path d="M23.9321 7.7664C23.8744 6.48858 23.668 5.61428 23.3751 4.85046C23.0679 4.06263 22.6598 3.3901 21.9925 2.72717C21.3251 2.06424 20.6578 1.6463 19.8704 1.34366C19.1071 1.04582 18.2333 0.844059 16.9563 0.786413C15.6744 0.728767 15.2663 0.714355 12.0113 0.714355C8.75142 0.714355 8.34334 0.728767 7.06628 0.786413C5.78923 0.844059 4.91545 1.05062 4.1521 1.34366C3.35994 1.6511 2.68781 2.05943 2.02527 2.72717C1.36274 3.3949 0.945058 4.06263 0.642598 4.85046C0.349739 5.61428 0.143298 6.48858 0.0856863 7.7664C0.0280748 9.04902 0.0136719 9.45735 0.0136719 12.7144C0.0136719 15.9762 0.0280748 16.3845 0.0856863 17.6623C0.143298 18.9401 0.349739 19.8144 0.642598 20.5782C0.949859 21.3661 1.35794 22.0386 2.02527 22.7015C2.68781 23.3693 3.35994 23.7824 4.1473 24.0851C4.91065 24.3829 5.78443 24.5847 7.06148 24.6423C8.34334 24.6999 8.75142 24.7144 12.0065 24.7144C15.2663 24.7144 15.6744 24.6999 16.9515 24.6423C18.2285 24.5847 19.1023 24.3781 19.8656 24.0851C20.653 23.7776 21.3251 23.3693 21.9877 22.7015C22.6502 22.0338 23.0679 21.3661 23.3703 20.5782C23.668 19.8144 23.8696 18.9401 23.9273 17.6623C23.9849 16.3797 23.9993 15.9714 23.9993 12.7144C23.9993 9.45735 23.9897 9.04422 23.9321 7.7664ZM21.7764 17.5662C21.7236 18.7384 21.5268 19.3773 21.3635 19.7952C21.1475 20.3525 20.8834 20.756 20.461 21.1787C20.0385 21.6015 19.64 21.8561 19.0783 22.0819C18.6558 22.2452 18.0173 22.4421 16.8506 22.495C15.588 22.5526 15.2087 22.567 12.0017 22.567C8.79463 22.567 8.41535 22.5526 7.1527 22.495C5.98127 22.4421 5.34274 22.2452 4.92505 22.0819C4.36814 21.8657 3.96486 21.6015 3.54238 21.1787C3.11989 20.756 2.86544 20.3573 2.6398 19.7952C2.47656 19.3725 2.27973 18.7336 2.22691 17.5662C2.1693 16.3028 2.1549 15.9233 2.1549 12.7144C2.1549 9.50539 2.1693 9.12589 2.22691 7.86247C2.27973 6.69034 2.47656 6.05143 2.6398 5.63349C2.85584 5.07625 3.11989 4.67272 3.54238 4.24998C3.96486 3.82725 4.36334 3.57264 4.92505 3.34686C5.34754 3.18353 5.98607 2.98657 7.1527 2.93373C8.41535 2.87609 8.79463 2.86167 12.0017 2.86167C15.2087 2.86167 15.588 2.87609 16.8506 2.93373C18.0221 2.98657 18.6606 3.18353 19.0783 3.34686C19.6352 3.56303 20.0385 3.82725 20.461 4.24998C20.8834 4.67272 21.1379 5.07144 21.3635 5.63349C21.5268 6.05623 21.7236 6.69514 21.7764 7.86247C21.834 9.12589 21.8484 9.50539 21.8484 12.7144C21.8484 15.9233 21.8292 16.3028 21.7764 17.5662Z" fill="url(#paint0_linear_154_3010)"/>
<path d="M12.0023 6.54639C8.59364 6.54639 5.83789 9.3086 5.83789 12.7145C5.83789 16.1252 8.59844 18.8827 12.0023 18.8827C15.4062 18.8827 18.1668 16.1156 18.1668 12.7145C18.1668 9.30379 15.411 6.54639 12.0023 6.54639ZM12.0023 16.7161C9.79388 16.7161 8.00312 14.9243 8.00312 12.7145C8.00312 10.5048 9.79388 8.71292 12.0023 8.71292C14.2108 8.71292 16.0015 10.5048 16.0015 12.7145C16.0015 14.9243 14.2108 16.7161 12.0023 16.7161Z" fill="url(#paint1_linear_154_3010)"/>
<path d="M18.4071 7.74705C19.2025 7.74705 19.8474 7.10183 19.8474 6.3059C19.8474 5.50997 19.2025 4.86475 18.4071 4.86475C17.6116 4.86475 16.9668 5.50997 16.9668 6.3059C16.9668 7.10183 17.6116 7.74705 18.4071 7.74705Z" fill="#BC30A0"/>
<path d="M0 12.7144C0 15.9762 0.0144029 16.3845 0.0720144 17.6623C0.129626 18.9401 0.336067 19.8144 0.628926 20.5782C0.936187 21.3661 1.34427 22.0386 2.0116 22.7015C2.67413 23.3645 3.34627 23.7824 4.13363 24.0851C4.89698 24.3829 5.77075 24.5847 7.04781 24.6423C8.32967 24.6999 8.73775 24.7144 11.9928 24.7144C15.2527 24.7144 15.6607 24.6999 16.9378 24.6423C18.2148 24.5847 19.0886 24.3781 19.852 24.0851C20.6393 23.7776 21.3115 23.3693 21.974 22.7015C22.6365 22.0386 23.0542 21.3661 23.3567 20.5782C23.6543 19.8144 23.856 18.9401 23.9136 17.6623C23.9712 16.3797 23.9856 15.9714 23.9856 12.7144C23.9856 9.45255 23.9712 9.04422 23.9136 7.7664C23.856 6.48858 23.6495 5.61428 23.3567 4.85046C23.0494 4.06263 22.6413 3.3901 21.974 2.72717C21.3163 2.05943 20.6441 1.6463 19.8568 1.34366C19.0934 1.04582 18.2196 0.844059 16.9426 0.786413C15.6607 0.728767 15.2527 0.714355 11.9976 0.714355C8.73775 0.714355 8.32967 0.728767 7.05261 0.786413C5.77555 0.844059 4.90178 1.05062 4.13843 1.34366C3.35107 1.6511 2.67894 2.05943 2.0164 2.72717C1.35387 3.3949 0.936187 4.06263 0.633727 4.85046C0.336067 5.61428 0.129626 6.48858 0.0720144 7.7664C0.0144029 9.04422 0 9.45255 0 12.7144ZM2.16523 12.7144C2.16523 9.51019 2.17964 9.12589 2.23725 7.86247C2.29006 6.69034 2.4869 6.05143 2.65013 5.63349C2.86617 5.07625 3.13023 4.67272 3.55271 4.24998C3.97519 3.82725 4.37367 3.57264 4.93539 3.34686C5.35787 3.18353 5.9964 2.98657 7.16303 2.93373C8.42568 2.87609 8.80496 2.86167 12.012 2.86167C15.219 2.86167 15.5983 2.87609 16.861 2.93373C18.0324 2.98657 18.6709 3.18353 19.0886 3.34686C19.6455 3.56303 20.0488 3.82725 20.4713 4.24998C20.8938 4.67272 21.1482 5.07144 21.3739 5.63349C21.5371 6.05623 21.7339 6.69514 21.7868 7.86247C21.8444 9.12589 21.8588 9.50539 21.8588 12.7144C21.8588 15.9233 21.8444 16.3028 21.7868 17.5662C21.7339 18.7384 21.5371 19.3773 21.3739 19.7952C21.1578 20.3525 20.8938 20.756 20.4713 21.1787C20.0488 21.6015 19.6503 21.8561 19.0886 22.0819C18.6661 22.2452 18.0276 22.4421 16.861 22.495C15.5983 22.5526 15.219 22.567 12.012 22.567C8.80496 22.567 8.42568 22.5526 7.16303 22.495C5.9916 22.4421 5.35307 22.2452 4.93539 22.0819C4.37848 21.8657 3.97519 21.6015 3.55271 21.1787C3.13023 20.756 2.87578 20.3573 2.65013 19.7952C2.4869 19.3725 2.29006 18.7336 2.23725 17.5662C2.17483 16.3028 2.16523 15.9185 2.16523 12.7144Z" fill="url(#paint2_linear_154_3010)"/>
<defs>
<linearGradient id="paint0_linear_154_3010" x1="20.2948" y1="2.54956" x2="2.93231" y2="23.822" gradientUnits="userSpaceOnUse">
<stop stop-color="#AE3DAE"/>
<stop offset="0.0468721" stop-color="#B23BA6"/>
<stop offset="0.1216" stop-color="#BD368E"/>
<stop offset="0.2148" stop-color="#CE2E69"/>
<stop offset="0.3216" stop-color="#E62335"/>
<stop offset="0.418" stop-color="#FF1800"/>
</linearGradient>
<linearGradient id="paint1_linear_154_3010" x1="14.9422" y1="7.76738" x2="8.63481" y2="18.3659" gradientUnits="userSpaceOnUse">
<stop stop-color="#E12F6A"/>
<stop offset="0.1705" stop-color="#EA3751"/>
<stop offset="0.3563" stop-color="#F13D3E"/>
<stop offset="0.5467" stop-color="#F64133"/>
<stop offset="0.7469" stop-color="#F7422F"/>
<stop offset="0.7946" stop-color="#F74C2F"/>
<stop offset="0.8743" stop-color="#F7652F"/>
<stop offset="0.9757" stop-color="#F78F2E"/>
<stop offset="1" stop-color="#F79A2E"/>
</linearGradient>
<linearGradient id="paint2_linear_154_3010" x1="17.4381" y1="-0.273676" x2="6.81389" y2="25.0507" gradientUnits="userSpaceOnUse">
<stop offset="0.2341" stop-color="#9E35A5" stop-opacity="0"/>
<stop offset="0.4512" stop-color="#D42F7F" stop-opacity="0.5"/>
<stop offset="0.7524" stop-color="#F7772E"/>
<stop offset="0.9624" stop-color="#FEF780"/>
</linearGradient>
</defs>
</svg>
