<svg width="24" height="25" viewBox="0 0 24 25" fill="none" xmlns="http://www.w3.org/2000/svg">
<rect y="0.714355" width="24" height="24" rx="12" fill="#0A66C2"/>
<g clip-path="url(#clip0_154_3011)">
<path d="M5 7.58189C5 7.13143 5.15766 6.7598 5.47297 6.46702C5.78828 6.17422 6.1982 6.02783 6.7027 6.02783C7.1982 6.02783 7.59909 6.17197 7.90541 6.46026C8.22072 6.75756 8.37838 7.14494 8.37838 7.62243C8.37838 8.05486 8.22523 8.41521 7.91892 8.70351C7.60361 9.0008 7.18919 9.14945 6.67568 9.14945H6.66216C6.16666 9.14945 5.76577 9.0008 5.45946 8.70351C5.15315 8.40621 5 8.03233 5 7.58189ZM5.17568 19.4062V10.3792H8.17568V19.4062H5.17568ZM9.83784 19.4062H12.8378V14.3657C12.8378 14.0503 12.8739 13.8071 12.9459 13.6359C13.0721 13.3296 13.2635 13.0706 13.5203 12.8589C13.777 12.6472 14.0991 12.5413 14.4865 12.5413C15.4955 12.5413 16 13.2215 16 14.5819V19.4062H19V14.2305C19 12.8972 18.6847 11.8859 18.0541 11.1968C17.4234 10.5076 16.5901 10.163 15.5541 10.163C14.3919 10.163 13.4865 10.663 12.8378 11.663V11.69H12.8243L12.8378 11.663V10.3792H9.83784C9.85585 10.6675 9.86486 11.5639 9.86486 13.0684C9.86486 14.5729 9.85585 16.6855 9.83784 19.4062Z" fill="white"/>
</g>
<defs>
<clipPath id="clip0_154_3011">
<rect x="5" y="5.71436" width="14" height="14" fill="white"/>
</clipPath>
</defs>
</svg>
