<svg width="24" height="20" viewBox="0 0 24 20" fill="none" xmlns="http://www.w3.org/2000/svg">
<path d="M8.90917 18.6H18.09C18.4846 18.5997 18.8698 18.4948 19.1954 18.2992C19.521 18.1035 19.7718 17.8262 19.9151 17.5034L22.9625 11.1571C23.0555 10.9472 23.1027 10.7239 23.1015 10.4986V8.68933C23.1015 7.70059 22.1942 6.5989 21.0826 6.5989H14.7219L15.6829 2.77918L15.7152 2.49805C15.7151 2.14226 15.556 1.80071 15.2722 1.5468L14.1941 0.600098L7.46825 6.56901C7.08977 6.90812 6.87879 7.36457 6.88103 7.83938V16.8378C6.88178 17.0706 6.93491 17.301 7.03736 17.5158C7.13982 17.7305 7.28958 17.9253 7.47804 18.0891C7.6665 18.2528 7.88995 18.3823 8.13555 18.4699C8.38115 18.5576 8.64406 18.6018 8.90917 18.6V18.6Z" stroke="#DF9718" stroke-width="1.2" stroke-linejoin="round"/>
<path d="M0.90063 8.10131H4.31836V18.6001H0.90063V8.10131Z" stroke="#DF9718" stroke-width="1.2" stroke-linejoin="round"/>
</svg>
