<svg width="24" height="21" viewBox="0 0 24 21" fill="none" xmlns="http://www.w3.org/2000/svg">
<g id="Group 5634">
<path id="Path 18439" d="M8.9082 19.5312H18.0891C18.4836 19.5308 18.8688 19.426 19.1944 19.2303C19.52 19.0347 19.7708 18.7573 19.9141 18.4346L22.9615 12.0883C23.0545 11.8784 23.1017 11.655 23.1006 11.4298V9.62049C23.1006 8.63175 22.1932 7.53005 21.0817 7.53005H14.7209L15.6819 3.71033L15.7142 3.42921C15.7141 3.07341 15.5551 2.73186 15.2712 2.47795L14.1931 1.53125L7.46727 7.50016C7.0888 7.83927 6.87781 8.29572 6.88006 8.77053V17.769C6.88081 18.0018 6.93394 18.2322 7.03639 18.4469C7.13884 18.6616 7.2886 18.8565 7.47706 19.0202C7.66552 19.184 7.88897 19.3134 8.13457 19.4011C8.38017 19.4888 8.64308 19.533 8.9082 19.5312V19.5312Z" stroke="#DF9718" stroke-width="1.2" stroke-linejoin="round"/>
<path id="Path 18440" d="M0.900142 9.03246H4.31787V19.5312H0.900142V9.03246Z" stroke="#DF9718" stroke-width="1.2" stroke-linejoin="round"/>
</g>
</svg>
