<svg width="96" height="97" viewBox="0 0 96 97" fill="none" xmlns="http://www.w3.org/2000/svg">
<g id="ic:round-verified">
<path id="Vector" d="M91.999 48.7141L82.239 37.5541L83.599 22.7941L69.159 19.514L61.599 6.71405L47.999 12.5541L34.399 6.71405L26.839 19.4741L12.399 22.7141L13.759 37.514L3.99902 48.7141L13.759 59.8741L12.399 74.674L26.839 77.954L34.399 90.7141L47.999 84.8341L61.599 90.674L69.159 77.914L83.599 74.634L82.239 59.8741L91.999 48.7141ZM37.519 64.7541L27.999 55.154C27.6282 54.784 27.334 54.3444 27.1333 53.8605C26.9326 53.3767 26.8292 52.8579 26.8292 52.334C26.8292 51.8102 26.9326 51.2914 27.1333 50.8076C27.334 50.3237 27.6282 49.8841 27.999 49.514L28.279 49.2341C29.839 47.674 32.399 47.674 33.959 49.2341L40.399 55.7141L60.999 35.0741C62.559 33.5141 65.119 33.5141 66.679 35.0741L66.959 35.354C68.519 36.914 68.519 39.434 66.959 40.994L43.279 64.7541C41.639 66.3141 39.119 66.3141 37.519 64.7541Z" fill="#00AB32"/>
</g>
</svg>
