<svg width="24" height="25" viewBox="0 0 24 25" fill="none" xmlns="http://www.w3.org/2000/svg">
<path d="M21.0566 7.89501C21.0659 8.10621 21.0659 8.30781 21.0659 8.51901C21.0752 14.9222 16.3707 22.3143 7.76744 22.3143C5.22999 22.3143 2.73885 21.5559 0.599609 20.1351C0.97004 20.1831 1.34047 20.2023 1.7109 20.2023C3.81309 20.2023 5.85972 19.4727 7.5174 18.119C5.51707 18.0806 3.75753 16.727 3.14632 14.7494C3.85014 14.8934 4.57248 14.8646 5.25777 14.663C3.08149 14.2214 1.51642 12.2342 1.50716 9.92062C1.50716 9.90142 1.50716 9.88222 1.50716 9.86302C2.15542 10.2374 2.88702 10.4486 3.62788 10.4678C1.58125 9.04702 0.942258 6.21501 2.1832 3.9974C4.56322 7.03101 8.06378 8.86461 11.8237 9.06622C11.444 7.38621 11.9626 5.6198 13.1757 4.4294C15.0557 2.59579 18.0191 2.69179 19.7972 4.6406C20.8436 4.4294 21.8531 4.0262 22.7699 3.4598C22.418 4.583 21.6864 5.5334 20.714 6.13821C21.6401 6.02301 22.5476 5.7638 23.3996 5.3798C22.7699 6.35901 21.9734 7.20381 21.0566 7.89501Z" fill="#1D9BF0"/>
</svg>
